HIERARCHY
ROOT hip
{
  OFFSET 0 0 0
  CHANNELS 6 Xposition Yposition Zposition Zrotation Yrotation Xrotation
  JOINT abdomen
  {
    OFFSET 0 20.6881 -0.73152
    CHANNELS 3 Zrotation Xrotation Yrotation
    JOINT chest
    {
      OFFSET 0 11.7043 -0.48768
      CHANNELS 3 Zrotation Xrotation Yrotation
      JOINT neck
      {
        OFFSET 0 22.1894 -2.19456
        CHANNELS 3 Zrotation Xrotation Yrotation
        JOINT head
        {
          OFFSET -0.24384 7.07133 1.2192
          CHANNELS 3 Zrotation Xrotation Yrotation
          JOINT leftEye
          {
            OFFSET 4.14528 8.04674 8.04672
            CHANNELS 3 Zrotation Xrotation Yrotation
            End Site
            {
              OFFSET 1 0 0
            }
          }
          JOINT rightEye
          {
            OFFSET -3.6576 8.04674 8.04672
            CHANNELS 3 Zrotation Xrotation Yrotation
            End Site
            {
              OFFSET 1 0 0
            }
          }
        }
      }
      JOINT rCollar
      {
        OFFSET -2.68224 19.2634 -4.8768
        CHANNELS 3 Zrotation Xrotation Yrotation
        JOINT rShldr
        {
          OFFSET -8.77824 -1.95073 1.46304
          CHANNELS 3 Zrotation Xrotation Yrotation
          JOINT rForeArm
          {
            OFFSET -28.1742 -1.7115 0.48768
            CHANNELS 3 Zrotation Xrotation Yrotation
            JOINT rHand
            {
              OFFSET -22.5879 0.773209 7.07136
              CHANNELS 3 Zrotation Xrotation Yrotation
              JOINT rThumb1
              {
                OFFSET -1.2192 -0.487915 3.41376
                CHANNELS 3 Zrotation Xrotation Yrotation
                JOINT rThumb2
                {
                  OFFSET -3.37035 -0.52449 3.41376
                  CHANNELS 3 Zrotation Xrotation Yrotation
                  End Site
                  {
                    OFFSET -1.78271 -1.18214 1.43049
                  }
                }
              }
              JOINT rIndex1
              {
                OFFSET -7.75947 0.938293 5.60832
                CHANNELS 3 Zrotation Xrotation Yrotation
                JOINT rIndex2
                {
                  OFFSET -2.54057 -0.884171 1.56538
                  CHANNELS 3 Zrotation Xrotation Yrotation
                  End Site
                  {
                    OFFSET -1.62519 -0.234802 1.16502
                  }
                }
              }
              JOINT rMid1
              {
                OFFSET -8.24714 1.18213 3.41376
                CHANNELS 3 Zrotation Xrotation Yrotation
                JOINT rMid2
                {
                  OFFSET -3.10165 -0.590103 1.0647
                  CHANNELS 3 Zrotation Xrotation Yrotation
                  End Site
                  {
                    OFFSET -2.48547 -0.328903 0.83742
                  }
                }
              }
              JOINT rRing1
              {
                OFFSET -8.82822 0.546677 1.51678
                CHANNELS 3 Zrotation Xrotation Yrotation
                JOINT rRing2
                {
                  OFFSET -2.60934 -0.819778 -0.0198488
                  CHANNELS 3 Zrotation Xrotation Yrotation
                  End Site
                  {
                    OFFSET -2.33842 -0.294052 0.168128
                  }
                }
              }
              JOINT rPinky1
              {
                OFFSET -8.27202 -0.0477905 -0.4584
                CHANNELS 3 Zrotation Xrotation Yrotation
                JOINT rPinky2
                {
                  OFFSET -1.82734 -0.647385 -0.700984
                  CHANNELS 3 Zrotation Xrotation Yrotation
                  End Site
                  {
                    OFFSET -1.69225 -0.51767 -0.607171
                  }
                }
              }
            }
          }
        }
      }
      JOINT lCollar
      {
        OFFSET 2.68224 19.2634 -4.8768
        CHANNELS 3 Zrotation Xrotation Yrotation
        JOINT lShldr
        {
          OFFSET 8.77824 -1.95073 1.46304
          CHANNELS 3 Zrotation Xrotation Yrotation
          JOINT lForeArm
          {
            OFFSET 28.1742 -1.7115 0.48768
            CHANNELS 3 Zrotation Xrotation Yrotation
            JOINT lHand
            {
              OFFSET 22.5879 0.773209 7.07136
              CHANNELS 3 Zrotation Xrotation Yrotation
              JOINT lThumb1
              {
                OFFSET 1.2192 -0.487915 3.41376
                CHANNELS 3 Zrotation Xrotation Yrotation
                JOINT lThumb2
                {
                  OFFSET 3.37035 -0.52449 3.41376
                  CHANNELS 3 Zrotation Xrotation Yrotation
                  End Site
                  {
                    OFFSET 1.78271 -1.18214 1.43049
                  }
                }
              }
              JOINT lIndex1
              {
                OFFSET 7.75947 0.938293 5.60832
                CHANNELS 3 Zrotation Xrotation Yrotation
                JOINT lIndex2
                {
                  OFFSET 2.54057 -0.884171 1.56538
                  CHANNELS 3 Zrotation Xrotation Yrotation
                  End Site
                  {
                    OFFSET 1.62519 -0.234802 1.16502
                  }
                }
              }
              JOINT lMid1
              {
                OFFSET 8.24714 1.18213 3.41376
                CHANNELS 3 Zrotation Xrotation Yrotation
                JOINT lMid2
                {
                  OFFSET 3.10165 -0.590103 1.0647
                  CHANNELS 3 Zrotation Xrotation Yrotation
                  End Site
                  {
                    OFFSET 2.48547 -0.328903 0.83742
                  }
                }
              }
              JOINT lRing1
              {
                OFFSET 8.82822 0.546677 1.51678
                CHANNELS 3 Zrotation Xrotation Yrotation
                JOINT lRing2
                {
                  OFFSET 2.60934 -0.819778 -0.0198488
                  CHANNELS 3 Zrotation Xrotation Yrotation
                  End Site
                  {
                    OFFSET 2.33842 -0.294052 0.168128
                  }
                }
              }
              JOINT lPinky1
              {
                OFFSET 8.27202 -0.0477905 -0.4584
                CHANNELS 3 Zrotation Xrotation Yrotation
                JOINT lPinky2
                {
                  OFFSET 1.82734 -0.647385 -0.700984
                  CHANNELS 3 Zrotation Xrotation Yrotation
                  End Site
                  {
                    OFFSET 1.69225 -0.51767 -0.607171
                  }
                }
              }
            }
          }
        }
      }
    }
  }
  JOINT rButtock
  {
    OFFSET -8.77824 4.35084 1.2192
    CHANNELS 3 Zrotation Xrotation Yrotation
    JOINT rThigh
    {
      OFFSET 0 -1.70687 -2.19456
      CHANNELS 3 Zrotation Xrotation Yrotation
      JOINT rShin
      {
        OFFSET 0 -36.8199 0.73152
        CHANNELS 3 Zrotation Xrotation Yrotation
        JOINT rFoot
        {
          OFFSET 0.73152 -45.1104 -5.12064
          CHANNELS 3 Zrotation Xrotation Yrotation
          End Site
          {
            OFFSET -1.1221 -3.69964 12.103
          }
        }
      }
    }
  }
  JOINT lButtock
  {
    OFFSET 8.77824 4.35084 1.2192
    CHANNELS 3 Zrotation Xrotation Yrotation
    JOINT lThigh
    {
      OFFSET 0 -1.70687 -2.19456
      CHANNELS 3 Zrotation Xrotation Yrotation
      JOINT lShin
      {
        OFFSET 0 -36.8199 0.73152
        CHANNELS 3 Zrotation Xrotation Yrotation
        JOINT lFoot
        {
          OFFSET -0.73152 -45.1104 -5.12064
          CHANNELS 3 Zrotation Xrotation Yrotation
          End Site
          {
            OFFSET 1.1221 -3.69964 12.103
          }
        }
      }
    }
  }
}
MOTION
Frames:	4
Frame Time:	0.03333
2.3759160973131657 -0.017151296138763428 -0.24626991734839976 -9.141689836978912 -6.943712756037712 -14.419147968292236 17.536765336990356 -12.882464826107025 10.227319300174713 -12.40781843662262 -4.713202491402626 -0.5114419385790825 5.2414219826459885 -11.081286370754242 2.5275548547506332 13.1990647315979 3.6742153018712997 -2.118546813726425 3.5072454437613487 5.927755683660507 0.7322775945067406 -3.8488639891147614 9.208078533411026 9.980336129665375 -5.738285109400749 -12.44559332728386 8.222376108169556 0.14587663114070892 1.4967824332416058 -5.766089558601379 2.3272287100553513 -1.414887048304081 9.533443227410316 10.936008542776108 10.126702263951302 -6.356813237071037 6.212969049811363 -2.122105937451124 18.036890029907227 5.920649841427803 -2.8685296699404716 -5.538503788411617 2.461732104420662 6.315525323152542 7.3122623562812805 -7.229630872607231 -9.563901722431183 -0.469503253698349 4.300102069973946 -0.8359267003834248 9.303708672523499 -4.19894490391016 4.049731604754925 -7.634217292070389 -13.27855870127678 11.80525079369545 -6.467112377285957 -4.081054106354713 -1.7264293134212494 -5.977015122771263 -9.603314772248268 5.219669938087463 3.3435703441500664 -3.3613255620002747 -2.167547084391117 -3.5466159135103226 -3.320315256714821 12.561428546905518 -3.2857415825128555 -5.01790277659893 -11.250166296958923 -7.50404566526413 1.9589372724294662 7.69060805439949 -16.58313810825348 -9.944391176104546 -12.130409628152847 -5.234283283352852 -10.040646940469742 -5.883186757564545 -1.3288994506001472 2.876121662557125 -6.074543595314026 -5.907757803797722 -7.526532635092735 4.333685673773289 8.985879644751549 -6.293777972459793 -11.322434395551682 -8.220809027552605 -12.459621280431747 11.365056037902832 0.6194508075714111 -7.211231589317322 -7.305862605571747 -1.9789157062768936 -9.455782547593117 6.102109327912331 -5.028145462274551 -10.076042711734772 -2.5715088844299316 -7.296869158744812 -6.575090736150742 8.911020532250404 5.381435304880142 -12.217771857976913 8.776157051324844 0.15509228222072124 -2.9715100675821304 2.2151559591293335 -1.5608317404985428 -5.073689706623554 8.188761994242668 6.626870781183243 7.86824069917202 17.80223160982132 8.936256095767021 -9.731092527508736 -1.6792747378349304 -0.12204822152853012 -6.018868312239647 -16.9303996860981 3.96175816655159 -1.522887870669365 -3.780316784977913 -1.3269002828747034 13.375731110572815 -9.175491034984589 10.591822117567062 8.019143119454384 -2.5706183910369873 2.001326233148575
2.4218182116746902 -0.019693350419402122 -0.24939491436816752 -8.020205944776535 -6.332710236310959 -14.384351670742035 16.035850793123245 -13.82870927453041 9.466520100831985 -13.130231201648712 -3.621724471449852 -0.19205018877983093 5.454384349286556 -10.442720800638199 1.369768101722002 12.935706675052643 5.525003559887409 -2.523324843496084 3.3949460461735725 6.0199083387851715 0.8035385236144066 -4.7057633846998215 9.420847445726395 9.56798605620861 -6.031091809272766 -11.74436867237091 6.965983137488365 -0.8230898156762123 1.161831859499216 -6.8177904188632965 0.9934137761592865 -0.9437352418899536 9.81648065149784 9.371535032987595 10.452925264835358 -5.487813726067543 5.20091325044632 -2.524603083729744 16.930175721645355 6.885730102658272 -2.0784860104322433 -4.848702326416969 2.7524755150079727 6.879522129893303 6.022404134273529 -7.155747413635254 -9.22837682068348 -0.14976885169744492 3.7914392352104187 -0.993779981508851 9.833791628479958 -4.246686547994614 4.5260171592235565 -7.055817693471909 -13.197498321533203 12.386114001274109 -6.70512355864048 -4.001222178339958 -1.2265879288315773 -5.378698781132698 -9.841117411851883 5.25086872279644 1.5121013671159744 -3.2622233033180237 -1.9314607232809067 -4.299343675374985 -4.1545359045267105 11.084805428981781 -1.7009838670492172 -5.574804805219173 -9.68811683356762 -8.167433068156242 1.9391268119215965 8.751598075032234 -15.350217819213867 -9.98180665075779 -11.980888545513153 -4.907254613935947 -10.087513849139214 -6.627451479434967 -0.6113830581307411 3.022184371948242 -6.019989475607872 -6.2166678160429 -7.4989253282547 5.1522546261549 8.291334360837936 -5.98686620593071 -10.655394494533539 -6.468346863985062 -12.114516198635101 10.130156949162483 -0.2872692793607712 -6.186347454786301 -5.662325620651245 -3.26117355376482 -9.032649993896484 5.985184460878372 -4.566603675484657 -9.579305648803711 -1.076011061668396 -7.503837123513222 -5.987159907817841 8.71940016746521 5.8829862624406815 -12.217340022325516 8.650808036327362 0.14860502444207668 -2.0921428129076958 1.7099229991436005 -3.539752811193466 -4.773298054933548 6.526773422956467 6.484629884362221 8.000992611050606 16.83589071035385 9.174262583255768 -9.655209481716156 -1.0240311920642853 0.19767997786402702 -6.760566830635071 -15.794627666473389 4.283338263630867 -1.6676634550094604 -4.007788226008415 -0.6314489990472794 12.297753989696503 -7.395003139972687 10.355346500873566 7.784589976072311 -2.140473872423172 2.1831652522087097
2.4691040366888046 -0.01823570393025875 -0.2548098925035447 -9.141127243638039 -7.0625922828912735 -13.804486244916916 16.65786176919937 -13.576129674911499 9.686402902007103 -13.087166994810104 -3.7399079650640488 -0.11405959725379944 5.846071019768715 -10.36065123975277 1.7115450650453568 12.372018992900848 4.495483562350273 -2.059876509010792 2.912304997444153 6.521671861410141 1.082097664475441 -4.689743556082249 9.11380760371685 10.124980956315994 -6.394584774971008 -10.86918868124485 7.642066106200218 -0.022410191595554352 2.204901035875082 -6.898256689310074 1.6611818969249725 -1.0423996299505234 9.942364767193794 10.193331018090248 10.86148738861084 -5.25281734764576 5.189382433891296 -2.2106780111789703 16.41874685883522 5.68143367767334 -1.2770915776491165 -5.105820894241333 2.3926078900694847 7.092117369174957 7.1533119678497314 -7.629975378513336 -10.767664387822151 0.06294406950473785 2.514161914587021 -0.9813942108303308 8.890317901968956 -3.888915404677391 5.03050547093153 -6.164771094918251 -13.148653954267502 11.350908726453781 -6.62519171833992 -2.813023366034031 -1.7063474468886852 -5.543648265302181 -9.283448606729507 4.284835606813431 1.8154659122228622 -2.836224138736725 -1.165742687880993 -4.517856538295746 -4.011819250881672 11.41403317451477 -1.9325842335820198 -5.5904896929860115 -9.745362550020218 -7.994627058506012 1.7791695892810822 8.181832507252693 -15.149880945682526 -9.8908831179142 -12.247832715511322 -4.979877434670925 -10.112798362970352 -7.660043612122536 -0.7835998199880123 3.111940138041973 -6.694892942905426 -6.30106620490551 -8.361523747444153 5.80664187669754 8.500428646802902 -5.177756063640118 -11.013726890087128 -6.825048476457596 -12.376141548156738 10.445221960544586 -0.6474591046571732 -5.901728868484497 -6.1300405114889145 -3.0484458804130554 -8.97502139210701 5.492076762020588 -5.026501268148422 -10.486961156129837 -1.2207195907831192 -7.611110061407089 -7.011931389570236 9.021795094013214 5.186109803617001 -10.713375136256218 9.313989579677582 -1.0163510218262672 -1.4391761273145676 1.8878946080803871 -3.033347725868225 -4.6373506262898445 6.324957311153412 6.509684398770332 7.118582725524902 16.624795496463776 8.711054474115372 -8.95886778831482 -1.3429780304431915 0.21785371005535126 -6.308899596333504 -16.493532210588455 5.110625736415386 -0.481613427400589 -3.8822397217154503 -1.4165850542485714 12.27012723684311 -7.234854474663734 9.53439474105835 7.4738627672195435 -2.608759067952633 2.2388888150453568
2.5175043120980263 -0.015393144451081753 -0.26145746489055455 -11.227191165089607 -8.210934475064278 -13.092732578516006 18.162208199501038 -12.720604240894318 10.578193813562393 -12.526185661554337 -4.505613595247269 -0.11293910443782806 6.027722954750061 -10.653258115053177 2.8242936730384827 11.997078359127045 2.046308219432831 -1.2851516157388687 2.623962163925171 6.83224081993103 1.465405784547329 -4.162357226014137 8.592420369386673 11.09259657561779 -6.423431932926178 -10.682308450341225 9.064251109957695 1.5808762237429619 3.6160945147275925 -6.213169544935226 3.3491074293851852 -1.6852979734539986 9.716905653476715 12.249916791915894 11.07353076338768 -5.4678091406822205 5.895169526338577 -1.838333085179329 16.269468516111374 3.7943460792303085 -1.0120945237576962 -5.902111753821373 1.8682772666215897 6.788880899548531 9.124931395053864 -8.162361681461334 -12.554410547018051 -0.1430918276309967 1.4492494985461235 -0.8657727297395468 7.775222361087799 -3.667721673846245 5.14262281358242 -5.687270164489746 -13.077328652143478 9.696339815855026 -6.289588361978531 -1.5515167638659477 -2.4802805855870247 -6.20576798915863 -8.732547014951706 3.340381532907486 3.3560023829340935 -2.485511898994446 -0.7474357634782791 -3.9599845558404922 -2.950020879507065 12.411865890026093 -3.25335793197155 -5.38412120193243 -11.058914065361023 -7.490994036197662 1.6723201051354408 7.013896778225899 -15.745166391134262 -9.90943394601345 -12.525425255298615 -5.178806819021702 -10.134075656533241 -8.338876515626907 -1.4336122199892998 3.1141070276498795 -7.445826977491379 -6.099510937929153 -9.133436009287834 5.714235752820969 9.152500480413437 -4.67030793428421 -11.67747437953949 -8.482004553079605 -12.955892980098724 11.816544234752655 -0.5193420499563217 -6.162878796458244 -7.645668983459473 -1.7953305691480637 -9.02718298137188 5.088995397090912 -5.80805204808712 -11.587228775024414 -2.3766765743494034 -7.649305388331413 -8.464329466223717 9.132780879735947 4.05132919549942 -9.234103336930275 10.098079070448875 -2.12251715362072 -1.4190974459052086 2.248648200184107 -1.2329471111297607 -4.429993070662022 7.482844144105911 6.691921725869179 6.2980493903160095 17.016587108373642 8.341795429587364 -8.132644817233086 -2.2382819652557373 0.05268562585115433 -5.400277152657509 -18.14551278948784 5.909823775291443 0.5765223875641823 -3.3677608519792557 -2.66116825863719 12.953124940395355 -8.346012532711029 9.03199352324009 7.294744849205017 -3.377951569855213 2.132370248436928
